<svg width="34" height="35" viewBox="0 0 34 35" fill="none" xmlns="http://www.w3.org/2000/svg">
<circle cx="17" cy="17.5" r="16.5" fill="#1B1B1B" stroke="#F56002"/>
<path d="M7.01595 13.3004L26.7069 10.6071L7.31866 22.6622L17.7719 6.94843L28.2448 22.932L4.70862 10.2808" stroke="#F56002" stroke-linecap="round"/>
<path d="M17.008 29.0895C16.5691 29.0895 16.177 29.0138 15.8319 28.8626C15.4888 28.7113 15.2172 28.5014 15.0169 28.233C14.8187 27.9624 14.7122 27.6491 14.6973 27.2933H15.7008C15.7136 27.4872 15.7786 27.6555 15.8958 27.7983C16.0151 27.9389 16.1706 28.0476 16.3624 28.1243C16.5542 28.201 16.7672 28.2393 17.0016 28.2393C17.2594 28.2393 17.4874 28.1946 17.6855 28.1051C17.8858 28.0156 18.0424 27.891 18.1554 27.7312C18.2683 27.5692 18.3248 27.3828 18.3248 27.1719C18.3248 26.9524 18.2683 26.7596 18.1554 26.5934C18.0446 26.4251 17.8816 26.293 17.6664 26.1971C17.4533 26.1012 17.1955 26.0533 16.8929 26.0533H16.34V25.2479H16.8929C17.1358 25.2479 17.3489 25.2042 17.5321 25.1168C17.7175 25.0295 17.8624 24.908 17.9668 24.7525C18.0712 24.5948 18.1234 24.4105 18.1234 24.1996C18.1234 23.9972 18.0776 23.8214 17.986 23.6722C17.8965 23.521 17.7686 23.4027 17.6025 23.3175C17.4384 23.2322 17.2445 23.1896 17.0208 23.1896C16.8077 23.1896 16.6085 23.229 16.4231 23.3079C16.2399 23.3846 16.0907 23.4954 15.9757 23.6403C15.8606 23.783 15.7988 23.9545 15.7903 24.1548H14.8347C14.8453 23.8011 14.9498 23.4901 15.1479 23.2216C15.3482 22.9531 15.6124 22.7433 15.9405 22.592C16.2686 22.4407 16.633 22.3651 17.0336 22.3651C17.4533 22.3651 17.8155 22.4471 18.1202 22.6112C18.427 22.7731 18.6635 22.9893 18.8297 23.2599C18.998 23.5305 19.0811 23.8267 19.079 24.1484C19.0811 24.5149 18.9789 24.826 18.7722 25.0817C18.5676 25.3374 18.2949 25.5089 17.954 25.5962V25.6474C18.3887 25.7134 18.7253 25.886 18.964 26.1651C19.2047 26.4442 19.324 26.7905 19.3219 27.2038C19.324 27.5639 19.2239 27.8867 19.0215 28.1722C18.8212 28.4577 18.5474 28.6825 18.2001 28.8466C17.8528 29.0085 17.4554 29.0895 17.008 29.0895Z" fill="#F56002"/>
</svg>
