<svg width="178" height="101" viewBox="0 0 178 101" fill="none" xmlns="http://www.w3.org/2000/svg">
<path d="M11.08 22.92H23.4V30.04H11.08V22.92ZM11.72 39H2.28V11H25.04V18.12H11.72V39ZM28.0222 39V11H37.4622V39H28.0222ZM48.0866 39V18.32H39.8866V11H65.7266V18.32H57.5266V39H48.0866ZM68.1784 39V11H75.9384L90.1784 28.04H86.5784V11H95.7784V39H88.0184L73.7784 21.96H77.3784V39H68.1784ZM108.967 21.4H121.447V28.2H108.967V21.4ZM109.607 31.88H123.607V39H100.327V11H123.087V18.12H109.607V31.88ZM137.681 39.64C135.334 39.64 133.068 39.3733 130.881 38.84C128.694 38.3067 126.894 37.6133 125.481 36.76L128.521 29.88C129.854 30.6533 131.334 31.28 132.961 31.76C134.614 32.2133 136.214 32.44 137.761 32.44C138.668 32.44 139.374 32.3867 139.881 32.28C140.414 32.1467 140.801 31.9733 141.041 31.76C141.281 31.52 141.401 31.24 141.401 30.92C141.401 30.4133 141.121 30.0133 140.561 29.72C140.001 29.4267 139.254 29.1867 138.321 29C137.414 28.7867 136.414 28.5733 135.321 28.36C134.228 28.12 133.121 27.8133 132.001 27.44C130.908 27.0667 129.894 26.5733 128.961 25.96C128.054 25.3467 127.321 24.5467 126.761 23.56C126.201 22.5467 125.921 21.2933 125.921 19.8C125.921 18.0667 126.401 16.4933 127.361 15.08C128.348 13.64 129.801 12.4933 131.721 11.64C133.668 10.7867 136.081 10.36 138.961 10.36C140.854 10.36 142.721 10.56 144.561 10.96C146.401 11.36 148.054 11.9733 149.521 12.8L146.681 19.64C145.294 18.9467 143.948 18.4267 142.641 18.08C141.361 17.7333 140.108 17.56 138.881 17.56C137.974 17.56 137.254 17.64 136.721 17.8C136.188 17.96 135.801 18.1733 135.561 18.44C135.348 18.7067 135.241 19 135.241 19.32C135.241 19.8 135.521 20.1867 136.081 20.48C136.641 20.7467 137.374 20.9733 138.281 21.16C139.214 21.3467 140.228 21.5467 141.321 21.76C142.441 21.9733 143.548 22.2667 144.641 22.64C145.734 23.0133 146.734 23.5067 147.641 24.12C148.574 24.7333 149.321 25.5333 149.881 26.52C150.441 27.5067 150.721 28.7333 150.721 30.2C150.721 31.9067 150.228 33.48 149.241 34.92C148.281 36.3333 146.841 37.48 144.921 38.36C143.001 39.2133 140.588 39.64 137.681 39.64ZM163.97 39.64C161.623 39.64 159.357 39.3733 157.17 38.84C154.983 38.3067 153.183 37.6133 151.77 36.76L154.81 29.88C156.143 30.6533 157.623 31.28 159.25 31.76C160.903 32.2133 162.503 32.44 164.05 32.44C164.957 32.44 165.663 32.3867 166.17 32.28C166.703 32.1467 167.09 31.9733 167.33 31.76C167.57 31.52 167.69 31.24 167.69 30.92C167.69 30.4133 167.41 30.0133 166.85 29.72C166.29 29.4267 165.543 29.1867 164.61 29C163.703 28.7867 162.703 28.5733 161.61 28.36C160.517 28.12 159.41 27.8133 158.29 27.44C157.197 27.0667 156.183 26.5733 155.25 25.96C154.343 25.3467 153.61 24.5467 153.05 23.56C152.49 22.5467 152.21 21.2933 152.21 19.8C152.21 18.0667 152.69 16.4933 153.65 15.08C154.637 13.64 156.09 12.4933 158.01 11.64C159.957 10.7867 162.37 10.36 165.25 10.36C167.143 10.36 169.01 10.56 170.85 10.96C172.69 11.36 174.343 11.9733 175.81 12.8L172.97 19.64C171.583 18.9467 170.237 18.4267 168.93 18.08C167.65 17.7333 166.397 17.56 165.17 17.56C164.263 17.56 163.543 17.64 163.01 17.8C162.477 17.96 162.09 18.1733 161.85 18.44C161.637 18.7067 161.53 19 161.53 19.32C161.53 19.8 161.81 20.1867 162.37 20.48C162.93 20.7467 163.663 20.9733 164.57 21.16C165.503 21.3467 166.517 21.5467 167.61 21.76C168.73 21.9733 169.837 22.2667 170.93 22.64C172.023 23.0133 173.023 23.5067 173.93 24.12C174.863 24.7333 175.61 25.5333 176.17 26.52C176.73 27.5067 177.01 28.7333 177.01 30.2C177.01 31.9067 176.517 33.48 175.53 34.92C174.57 36.3333 173.13 37.48 171.21 38.36C169.29 39.2133 166.877 39.64 163.97 39.64Z" fill="white"/>
<path d="M67.8257 55.2061C67.8257 55.2793 67.7321 55.4665 67.5449 55.7676C67.3577 56.0605 67.0811 56.4959 66.7148 57.0737C66.3486 57.6434 65.9051 58.3758 65.3843 59.271C64.8634 60.158 64.3263 61.1427 63.7729 62.2251C63.1382 63.4702 62.6784 64.4508 62.3936 65.167C62.1169 65.875 61.9785 66.4854 61.9785 66.998C61.9785 67.4049 62.1942 67.763 62.6255 68.0723C63.1463 67.6654 63.659 67.1812 64.1636 66.6196C64.6681 66.0581 65.1646 65.4315 65.6528 64.7397C66.1493 64.048 66.7189 63.1732 67.3618 62.1152C68.0129 61.0573 68.5907 60.0848 69.0952 59.1978C69.0708 59.1245 69.0423 59.0513 69.0098 58.978C68.9854 58.9048 68.9731 58.8438 68.9731 58.7949C68.9731 58.4124 69.0505 58.0544 69.2051 57.7207C69.3597 57.387 69.5509 57.0615 69.7788 56.7441C70.0148 56.4268 70.3647 55.9792 70.8286 55.4014C70.9507 55.2467 71.1012 55.1694 71.2803 55.1694C71.5732 55.1694 71.7197 55.3566 71.7197 55.731C71.7197 56.1053 71.5651 56.6953 71.2559 57.501C70.9548 58.2985 70.5072 59.2384 69.9131 60.3208C69.319 61.4032 68.5785 62.6157 67.6914 63.9585C66.8125 65.2931 65.8156 66.6888 64.7007 68.1455C63.5695 69.6185 62.7598 70.355 62.2715 70.355C61.9948 70.355 61.6815 70.2004 61.3315 69.8911C60.9816 69.59 60.6805 69.175 60.4282 68.646C60.1759 68.117 60.0498 67.5514 60.0498 66.9492C60.0498 66.5911 60.123 66.1313 60.2695 65.5698C60.4242 65.0083 60.6602 64.3369 60.9775 63.5557C61.3031 62.7663 61.6693 61.9891 62.0762 61.2241C62.4993 60.4185 62.8696 59.7511 63.187 59.2222C63.5125 58.6932 63.8787 58.1073 64.2856 57.4644C64.6925 56.8133 64.896 56.4593 64.896 56.4023C64.896 56.2803 64.8146 56.2192 64.6519 56.2192C64.1799 56.2192 63.5492 56.4593 62.7598 56.9395C61.9785 57.4196 60.9572 58.1479 59.6958 59.1245C59.2157 59.4989 58.9146 59.743 58.7925 59.8569C58.6623 59.9627 58.5972 60.0522 58.5972 60.1255C58.5972 60.2231 58.6745 60.272 58.8291 60.272C58.8942 60.272 59.1139 60.2476 59.4883 60.1987C59.8626 60.1499 60.1597 60.1255 60.3794 60.1255C60.7456 60.1255 60.9287 60.1906 60.9287 60.3208C60.9287 60.4347 60.8514 60.5243 60.6968 60.5894C60.5503 60.6545 60.3428 60.7196 60.0742 60.7847C59.8138 60.8498 59.4557 60.9393 59 61.0532C58.5117 61.1834 57.995 61.3706 57.4497 61.6147C56.8963 61.8589 56.5789 61.981 56.4976 61.981C56.3429 61.981 56.2493 61.924 56.2168 61.8101C56.1761 61.6961 56.1558 61.509 56.1558 61.2485C56.1558 60.0929 56.347 59.2018 56.7295 58.5752C57.112 57.9404 57.7956 57.2812 58.7803 56.5977C59.9033 55.8164 60.9775 55.1694 62.0029 54.6567C63.0283 54.1359 63.9113 53.7575 64.6519 53.5215C65.4006 53.2773 65.9499 53.1553 66.2998 53.1553C66.6416 53.1553 66.9793 53.375 67.313 53.8145C67.6548 54.2539 67.8257 54.7178 67.8257 55.2061ZM71.4756 65.5942V65.8994C71.4756 66.3796 71.5936 66.7539 71.8296 67.0225C72.0656 67.291 72.3748 67.4253 72.7573 67.4253C73.1561 67.4253 73.5671 67.3317 73.9902 67.1445C74.4215 66.9574 74.8488 66.7091 75.272 66.3999C75.6951 66.0907 76.2119 65.6756 76.8223 65.1548V65.8994C75.9027 67.0062 75.04 67.8566 74.2344 68.4507C73.4287 69.0366 72.6108 69.3296 71.7808 69.3296C71.0565 69.3296 70.4827 69.0488 70.0596 68.4873C69.6364 67.9258 69.4248 67.1567 69.4248 66.1802C69.4248 65.3257 69.6242 64.5526 70.0229 63.8608C70.4217 63.161 71.0728 62.4245 71.9761 61.6514C72.5946 61.1224 73.209 60.7236 73.8193 60.4551C74.4297 60.1865 74.9749 60.0522 75.4551 60.0522C75.8376 60.0522 76.1387 60.1418 76.3584 60.3208C76.5863 60.4917 76.7002 60.7521 76.7002 61.1021C76.7002 61.6147 76.509 62.1274 76.1265 62.6401C75.744 63.1447 75.158 63.6493 74.3687 64.1538C73.5874 64.6502 72.623 65.1304 71.4756 65.5942ZM71.5977 64.8008C72.3301 64.516 72.9567 64.1619 73.4775 63.7388C73.9984 63.3156 74.3809 62.9128 74.625 62.5303C74.8773 62.1396 75.0034 61.8548 75.0034 61.6758C75.0034 61.4886 74.918 61.395 74.7471 61.395C74.6006 61.395 74.3605 61.4886 74.0269 61.6758C73.7013 61.863 73.3677 62.1071 73.0259 62.4082C72.6922 62.7093 72.3911 63.0633 72.1226 63.4702C71.854 63.8771 71.679 64.3206 71.5977 64.8008ZM76.7002 66.0947V65.3013C77.1396 64.7804 77.4733 64.3369 77.7012 63.9707C77.4408 63.8812 77.2495 63.7713 77.1274 63.6411C77.0135 63.5109 76.9565 63.3156 76.9565 63.0552C76.9565 62.7622 77.0786 62.3919 77.3228 61.9443C77.5669 61.4967 77.868 61.0776 78.2261 60.687C78.5841 60.2964 78.9097 60.0441 79.2026 59.9302C79.3166 59.8732 79.4264 59.8447 79.5322 59.8447C79.695 59.8447 79.7764 59.922 79.7764 60.0767C79.7764 60.215 79.6502 60.4958 79.3979 60.9189C81.0744 60.6585 82.1323 60.5283 82.5718 60.5283C82.7427 60.5283 82.8607 60.5446 82.9258 60.5771C83.0641 60.6504 83.1781 60.8213 83.2676 61.0898C83.3571 61.3584 83.4019 61.627 83.4019 61.8955C83.4019 62.0664 83.3245 62.2536 83.1699 62.457C83.0234 62.6523 82.7671 62.9412 82.4009 63.3237C81.9696 63.7876 81.6074 64.2922 81.3145 64.8374C81.0215 65.3826 80.875 65.7936 80.875 66.0703C80.875 66.4528 81.111 66.644 81.583 66.644C82.0794 66.644 82.9421 66.1395 84.1709 65.1304V65.9482C83.4954 66.6562 82.938 67.2137 82.4985 67.6206C82.0591 68.0275 81.6522 68.353 81.2778 68.5972C80.9035 68.8332 80.5698 68.9512 80.2769 68.9512C79.9351 68.9512 79.6502 68.7965 79.4224 68.4873C79.1945 68.1699 79.0806 67.7142 79.0806 67.1201C79.0806 66.7702 79.1701 66.3714 79.3491 65.9238C79.5282 65.4762 79.7886 64.992 80.1304 64.4712C80.4803 63.9422 80.8709 63.4173 81.3022 62.8965C81.0744 62.9453 80.818 62.9982 80.5332 63.0552C80.2484 63.104 79.9473 63.1569 79.6299 63.2139C79.3125 63.2708 79.0684 63.3156 78.8975 63.3481C78.3929 64.3573 77.6605 65.2728 76.7002 66.0947ZM84.0732 65.4966V65.2036C86.1729 62.9901 87.6174 61.4398 88.4067 60.5527C88.5858 59.5518 89.0171 59.0513 89.7007 59.0513C89.8716 59.0513 90.0547 59.1001 90.25 59.1978L90.3232 59.4297C90.2907 59.5273 90.2744 59.6657 90.2744 59.8447C90.2744 59.9993 90.3314 60.2882 90.4453 60.7114C90.5674 61.1265 90.661 61.4764 90.7261 61.7612C90.7912 62.0461 90.8237 62.3675 90.8237 62.7256C90.8237 63.2627 90.7017 63.7795 90.4575 64.2759C90.2134 64.7642 89.8594 65.2362 89.3955 65.6919C88.9316 66.1395 88.3335 66.5993 87.6011 67.0713C87.894 67.1201 88.126 67.1445 88.2969 67.1445C88.6305 67.1445 88.9886 67.0632 89.3711 66.9004C89.7617 66.7295 90.1564 66.5057 90.5552 66.229C90.9621 65.9442 91.4341 65.578 91.9712 65.1304V65.9482C90.9295 66.9655 89.9977 67.7386 89.1758 68.2676C88.3538 68.7884 87.6458 69.0488 87.0518 69.0488C86.2868 69.0488 85.5788 68.7233 84.9277 68.0723C84.5452 67.6816 84.3052 67.3073 84.2075 66.9492C84.118 66.5911 84.0732 66.1069 84.0732 65.4966ZM88.6265 63.6289L88.4067 61.8467C87.9022 62.4163 86.8239 63.5109 85.1719 65.1304C85.6602 65.2362 85.9938 65.3786 86.1729 65.5576C86.3519 65.7367 86.6042 66.0825 86.9297 66.5952C87.4831 66.3674 87.9062 66.0581 88.1992 65.6675C88.5003 65.2687 88.6509 64.7275 88.6509 64.0439C88.6509 63.9626 88.6468 63.8893 88.6387 63.8242C88.6387 63.7591 88.6346 63.694 88.6265 63.6289ZM93.8877 65.5942V65.8994C93.8877 66.3796 94.0057 66.7539 94.2417 67.0225C94.4777 67.291 94.7869 67.4253 95.1694 67.4253C95.5682 67.4253 95.9792 67.3317 96.4023 67.1445C96.8337 66.9574 97.2609 66.7091 97.6841 66.3999C98.1073 66.0907 98.624 65.6756 99.2344 65.1548V65.8994C98.3148 67.0062 97.4521 67.8566 96.6465 68.4507C95.8408 69.0366 95.0229 69.3296 94.1929 69.3296C93.4686 69.3296 92.8949 69.0488 92.4717 68.4873C92.0485 67.9258 91.8369 67.1567 91.8369 66.1802C91.8369 65.3257 92.0363 64.5526 92.4351 63.8608C92.8338 63.161 93.4849 62.4245 94.3882 61.6514C95.0067 61.1224 95.6211 60.7236 96.2314 60.4551C96.8418 60.1865 97.387 60.0522 97.8672 60.0522C98.2497 60.0522 98.5508 60.1418 98.7705 60.3208C98.9984 60.4917 99.1123 60.7521 99.1123 61.1021C99.1123 61.6147 98.9211 62.1274 98.5386 62.6401C98.1561 63.1447 97.5701 63.6493 96.7808 64.1538C95.9995 64.6502 95.0352 65.1304 93.8877 65.5942ZM94.0098 64.8008C94.7422 64.516 95.3688 64.1619 95.8896 63.7388C96.4105 63.3156 96.793 62.9128 97.0371 62.5303C97.2894 62.1396 97.4155 61.8548 97.4155 61.6758C97.4155 61.4886 97.3301 61.395 97.1592 61.395C97.0127 61.395 96.7726 61.4886 96.439 61.6758C96.1134 61.863 95.7798 62.1071 95.438 62.4082C95.1043 62.7093 94.8032 63.0633 94.5347 63.4702C94.2661 63.8771 94.0911 64.3206 94.0098 64.8008Z" fill="#F56002"/>
<rect x="105.726" y="63.6746" width="7.59799" height="1.91744" rx="0.95872" transform="rotate(45.5906 105.726 63.6746)" stroke="#F56002" stroke-width="1.91744"/>
<rect x="113.197" y="56.3558" width="7.59799" height="1.91744" rx="0.95872" transform="rotate(45.5906 113.197 56.3558)" stroke="#F56002" stroke-width="1.91744"/>
<rect x="113.558" y="60.2268" width="1.82989" height="7.66976" transform="rotate(45.5906 113.558 60.2268)" fill="#FF6A00"/>
<rect x="105.768" y="64.3403" width="6.5876" height="1.04588" rx="0.522938" transform="rotate(45.5906 105.768 64.3403)" fill="#FF6A00"/>
<rect x="113.239" y="57.0215" width="6.5876" height="1.04588" rx="0.522938" transform="rotate(45.5906 113.239 57.0215)" fill="#FF6A00"/>
<path d="M36 88.5L141 83L36 100L128.5 93.5" stroke="#F56002"/>
</svg>
