<svg width="318" height="104" viewBox="0 0 318 104" fill="none" xmlns="http://www.w3.org/2000/svg">
<g clip-path="url(#clip0_79_26)">
<rect width="318" height="104" rx="17" fill="#2D2D2D"/>
<path d="M15.8233 19.4545H19.0478L23.3659 29.9943H23.5364L27.8546 19.4545H31.079V34H28.5506V24.0071H28.4157L24.3958 33.9574H22.5066L18.4867 23.9858H18.3517V34H15.8233V19.4545ZM35.4327 38.0909C35.0823 38.0909 34.758 38.0625 34.4597 38.0057C34.1661 37.9536 33.9318 37.892 33.7566 37.821L34.3532 35.8182C34.7272 35.9271 35.061 35.9792 35.3546 35.9744C35.6481 35.9697 35.9062 35.8774 36.1287 35.6974C36.356 35.5223 36.5478 35.2287 36.704 34.8168L36.9242 34.2273L32.9682 23.0909H35.6955L38.2097 31.3295H38.3233L40.8446 23.0909H43.579L39.2111 35.321C39.0075 35.8987 38.7376 36.3935 38.4015 36.8054C38.0653 37.2221 37.6534 37.5393 37.1657 37.7571C36.6827 37.9796 36.1051 38.0909 35.4327 38.0909ZM44.6479 34L48.6749 28.3679L44.6834 23.0909H47.6522L50.7559 27.4872H51.3667V23.0909H53.9377V27.4872H54.5343L57.638 23.0909H60.6067L56.6365 28.3679L60.6422 34H57.6096L54.5059 29.5966H53.9377V34H51.3667V29.5966H50.7985L47.6806 34H44.6479ZM66.9135 34.2131C65.8245 34.2131 64.8894 33.974 64.1081 33.4957C63.3316 33.0175 62.7327 32.357 62.3113 31.5142C61.8946 30.6667 61.6863 29.6913 61.6863 28.5881C61.6863 27.4801 61.8993 26.5024 62.3255 25.6548C62.7516 24.8026 63.3529 24.1397 64.1294 23.6662C64.9107 23.188 65.834 22.9489 66.8993 22.9489C67.7847 22.9489 68.5684 23.1122 69.2502 23.4389C69.9367 23.7609 70.4836 24.2178 70.8908 24.8097C71.298 25.3968 71.53 26.0833 71.5868 26.8693H69.1294C69.03 26.3437 68.7933 25.9058 68.4192 25.5554C68.0499 25.2003 67.5551 25.0227 66.9348 25.0227C66.4093 25.0227 65.9476 25.1648 65.5499 25.4489C65.1522 25.7282 64.842 26.1307 64.6195 26.6562C64.4017 27.1818 64.2928 27.8116 64.2928 28.5455C64.2928 29.2888 64.4017 29.928 64.6195 30.4631C64.8373 30.9934 65.1427 31.4029 65.5357 31.6918C65.9334 31.9759 66.3998 32.1179 66.9348 32.1179C67.3136 32.1179 67.6522 32.0469 67.9505 31.9048C68.2535 31.758 68.5068 31.5473 68.7104 31.2727C68.914 30.9981 69.0537 30.6643 69.1294 30.2713H71.5868C71.5253 31.0431 71.298 31.7273 70.905 32.3239C70.512 32.9157 69.977 33.3797 69.2999 33.7159C68.6228 34.0473 67.8274 34.2131 66.9135 34.2131ZM73.698 34V23.0909H76.269V27.4943H77.2065L80.4877 23.0909H83.5843L79.5431 28.446L83.627 34H80.5162L77.5261 29.8878H76.269V34H73.698ZM89.394 34.2131C88.3287 34.2131 87.4054 33.9787 86.6241 33.5099C85.8429 33.0412 85.2368 32.3854 84.8059 31.5426C84.3798 30.6998 84.1667 29.715 84.1667 28.5881C84.1667 27.4612 84.3798 26.474 84.8059 25.6264C85.2368 24.7789 85.8429 24.1207 86.6241 23.652C87.4054 23.1832 88.3287 22.9489 89.394 22.9489C90.4593 22.9489 91.3826 23.1832 92.1639 23.652C92.9451 24.1207 93.5488 24.7789 93.975 25.6264C94.4058 26.474 94.6213 27.4612 94.6213 28.5881C94.6213 29.715 94.4058 30.6998 93.975 31.5426C93.5488 32.3854 92.9451 33.0412 92.1639 33.5099C91.3826 33.9787 90.4593 34.2131 89.394 34.2131ZM89.4082 32.1534C89.9859 32.1534 90.4688 31.9948 90.8571 31.6776C91.2453 31.3556 91.5342 30.9247 91.7235 30.3849C91.9177 29.8452 92.0147 29.2438 92.0147 28.581C92.0147 27.9134 91.9177 27.3097 91.7235 26.7699C91.5342 26.2254 91.2453 25.7921 90.8571 25.4702C90.4688 25.1482 89.9859 24.9872 89.4082 24.9872C88.8163 24.9872 88.3239 25.1482 87.9309 25.4702C87.5427 25.7921 87.2515 26.2254 87.0574 26.7699C86.868 27.3097 86.7733 27.9134 86.7733 28.581C86.7733 29.2438 86.868 29.8452 87.0574 30.3849C87.2515 30.9247 87.5427 31.3556 87.9309 31.6776C88.3239 31.9948 88.8163 32.1534 89.4082 32.1534ZM99.2821 30.5199L103.65 23.0909H106.292V34H103.806V26.5639L99.4526 34H96.8034V23.0909H99.2821V30.5199ZM102.947 19.3409H104.872C104.872 20.1695 104.571 20.8419 103.97 21.358C103.373 21.8693 102.563 22.125 101.541 22.125C100.527 22.125 99.7201 21.8693 99.1188 21.358C98.5222 20.8419 98.2263 20.1695 98.231 19.3409H100.142C100.142 19.6818 100.246 19.9872 100.454 20.2571C100.667 20.5223 101.029 20.6548 101.541 20.6548C102.043 20.6548 102.4 20.5223 102.613 20.2571C102.831 19.992 102.942 19.6866 102.947 19.3409Z" fill="white"/>
<path d="M208.86 92H249.681C250.216 92 250.653 91.5626 250.653 91.0281V81.9566C250.653 81.4221 250.216 80.9847 249.681 80.9847H223.698L255.983 48.7001C264.082 54.9367 273.963 58.3061 284.347 58.3061C296.804 58.3061 308.532 53.4464 317.328 44.6342C326.124 35.8219 331 24.1101 331 11.6531C331 -0.803955 326.14 -12.532 317.328 -21.3281C308.532 -30.1403 296.804 -35 284.347 -35C271.89 -35 260.162 -30.1403 251.366 -21.3281C242.554 -12.532 237.694 -0.803955 237.694 11.6531C237.694 22.0366 241.063 31.8856 247.284 39.9851L215.015 72.2534V46.3189C215.015 45.7843 214.578 45.3469 214.043 45.3469H204.972C204.437 45.3469 204 45.7843 204 46.3189V87.1403C204 89.8131 206.187 92 208.86 92ZM284.347 -22.6888C303.284 -22.6888 318.689 -7.28355 318.689 11.6531C318.689 30.5897 303.284 45.9949 284.347 45.9949C265.41 45.9949 250.005 30.5897 250.005 11.6531C250.005 -7.28355 265.41 -22.6888 284.347 -22.6888Z" fill="#F56002"/>
</g>
<rect x="0.5" y="0.5" width="317" height="103" rx="16.5" stroke="#F56002"/>
<defs>
<clipPath id="clip0_79_26">
<rect width="318" height="104" rx="17" fill="white"/>
</clipPath>
</defs>
</svg>
