<svg width="32" height="16" viewBox="0 0 32 16" fill="none" xmlns="http://www.w3.org/2000/svg">
<path d="M9.53333 1H5.8C5.58783 1 5.38434 1.08429 5.23431 1.23431C5.08429 1.38434 5 1.58783 5 1.8V13.5333C5 13.6384 5.02069 13.7424 5.0609 13.8395C5.1011 13.9365 5.16003 14.0247 5.23431 14.099C5.3086 14.1733 5.39679 14.2322 5.49385 14.2724C5.59091 14.3126 5.69494 14.3333 5.8 14.3333H9.53333C9.63839 14.3333 9.74242 14.3126 9.83948 14.2724C9.93654 14.2322 10.0247 14.1733 10.099 14.099C10.1733 14.0247 10.2322 13.9365 10.2724 13.8395C10.3126 13.7424 10.3333 13.6384 10.3333 13.5333V1.8C10.3333 1.58783 10.249 1.38434 10.099 1.23431C9.94899 1.08429 9.74551 1 9.53333 1ZM25.5333 1H21.8C21.5878 1 21.3843 1.08429 21.2343 1.23431C21.0843 1.38434 21 1.58783 21 1.8V13.5333C21 13.6384 21.0207 13.7424 21.0609 13.8395C21.1011 13.9365 21.16 14.0247 21.2343 14.099C21.3086 14.1733 21.3968 14.2322 21.4939 14.2724C21.5909 14.3126 21.6949 14.3333 21.8 14.3333H25.5333C25.6384 14.3333 25.7424 14.3126 25.8395 14.2724C25.9365 14.2322 26.0247 14.1733 26.099 14.099C26.1733 14.0247 26.2322 13.9365 26.2724 13.8395C26.3126 13.7424 26.3333 13.6384 26.3333 13.5333V1.8C26.3333 1.58783 26.249 1.38434 26.099 1.23431C25.949 1.08429 25.7455 1 25.5333 1Z" stroke="white" stroke-width="1.5" stroke-linecap="round" stroke-linejoin="round"/>
<path d="M10.3333 7.6665H21M1 10.8665V4.4665C1 4.25433 1.08429 4.05085 1.23431 3.90082C1.38434 3.75079 1.58783 3.6665 1.8 3.6665H4.2C4.41217 3.6665 4.61566 3.75079 4.76569 3.90082C4.91571 4.05085 5 4.25433 5 4.4665V10.8665C5 11.0787 4.91571 11.2822 4.76569 11.4322C4.61566 11.5822 4.41217 11.6665 4.2 11.6665H1.8C1.58783 11.6665 1.38434 11.5822 1.23431 11.4322C1.08429 11.2822 1 11.0787 1 10.8665ZM30.3333 10.8665V4.4665C30.3333 4.25433 30.249 4.05085 30.099 3.90082C29.949 3.75079 29.7455 3.6665 29.5333 3.6665H27.1333C26.9212 3.6665 26.7177 3.75079 26.5676 3.90082C26.4176 4.05085 26.3333 4.25433 26.3333 4.4665V10.8665C26.3333 11.0787 26.4176 11.2822 26.5676 11.4322C26.7177 11.5822 26.9212 11.6665 27.1333 11.6665H29.5333C29.7455 11.6665 29.949 11.5822 30.099 11.4322C30.249 11.2822 30.3333 11.0787 30.3333 10.8665Z" stroke="white" stroke-width="1.5" stroke-linecap="round" stroke-linejoin="round"/>
</svg>
