<svg width="318" height="104" viewBox="0 0 318 104" fill="none" xmlns="http://www.w3.org/2000/svg">
<g clip-path="url(#clip0_75_550)">
<rect width="318" height="104" rx="17" fill="#2D2D2D"/>
<path d="M26.163 19.4545V34H23.5778V19.4545H26.163ZM15.0337 34L19.6502 26.358L15.2965 19.4545H18.5281L21.9656 25.598H27.8391L31.2198 19.4545H34.4371L30.1474 26.3509L34.707 34H31.5891L28.2156 28.0412H21.5607L18.1232 34H15.0337ZM40.8576 34.2131C39.7638 34.2131 38.8192 33.9858 38.0238 33.5312C37.2331 33.072 36.6246 32.4233 36.1985 31.5852C35.7724 30.7424 35.5593 29.7505 35.5593 28.6094C35.5593 27.4872 35.7724 26.5024 36.1985 25.6548C36.6294 24.8026 37.2307 24.1397 38.0025 23.6662C38.7743 23.188 39.681 22.9489 40.7227 22.9489C41.395 22.9489 42.0295 23.0578 42.6261 23.2756C43.2274 23.4886 43.7577 23.8201 44.217 24.2699C44.681 24.7197 45.0456 25.2926 45.3107 25.9886C45.5759 26.6799 45.7085 27.5038 45.7085 28.4602V29.2486H36.7667V27.5156H43.244C43.2392 27.0232 43.1327 26.5852 42.9244 26.2017C42.716 25.8134 42.4248 25.508 42.0508 25.2855C41.6815 25.063 41.2506 24.9517 40.7582 24.9517C40.2326 24.9517 39.771 25.0795 39.3732 25.3352C38.9755 25.5862 38.6654 25.9176 38.4428 26.3295C38.225 26.7367 38.1138 27.1842 38.109 27.6719V29.1847C38.109 29.8191 38.225 30.3636 38.457 30.8182C38.689 31.268 39.0134 31.6136 39.43 31.8551C39.8467 32.0919 40.3344 32.2102 40.8931 32.2102C41.2672 32.2102 41.6057 32.1581 41.9087 32.054C42.2118 31.9451 42.4746 31.7865 42.6971 31.5781C42.9196 31.3698 43.0877 31.1117 43.2013 30.804L45.6019 31.0739C45.4504 31.7083 45.1616 32.2623 44.7354 32.7358C44.314 33.2045 43.7743 33.5691 43.1161 33.8295C42.458 34.0852 41.7051 34.2131 40.8576 34.2131ZM55.3764 27.4801V29.5895H49.5668V27.4801H55.3764ZM50.3622 23.0909V34H47.8835V23.0909H50.3622ZM57.0597 23.0909V34H54.5881V23.0909H57.0597ZM64.4194 34.2131C63.3304 34.2131 62.3952 33.974 61.614 33.4957C60.8375 33.0175 60.2385 32.357 59.8171 31.5142C59.4004 30.6667 59.1921 29.6913 59.1921 28.5881C59.1921 27.4801 59.4052 26.5024 59.8313 25.6548C60.2575 24.8026 60.8588 24.1397 61.6353 23.6662C62.4165 23.188 63.3398 22.9489 64.4052 22.9489C65.2906 22.9489 66.0742 23.1122 66.756 23.4389C67.4426 23.7609 67.9895 24.2178 68.3967 24.8097C68.8039 25.3968 69.0359 26.0833 69.0927 26.8693H66.6353C66.5359 26.3437 66.2991 25.9058 65.9251 25.5554C65.5558 25.2003 65.061 25.0227 64.4407 25.0227C63.9151 25.0227 63.4535 25.1648 63.0558 25.4489C62.658 25.7282 62.3479 26.1307 62.1254 26.6562C61.9076 27.1818 61.7987 27.8116 61.7987 28.5455C61.7987 29.2888 61.9076 29.928 62.1254 30.4631C62.3432 30.9934 62.6486 31.4029 63.0415 31.6918C63.4393 31.9759 63.9057 32.1179 64.4407 32.1179C64.8195 32.1179 65.158 32.0469 65.4563 31.9048C65.7594 31.758 66.0127 31.5473 66.2163 31.2727C66.4199 30.9981 66.5595 30.6643 66.6353 30.2713H69.0927C69.0311 31.0431 68.8039 31.7273 68.4109 32.3239C68.0179 32.9157 67.4828 33.3797 66.8058 33.7159C66.1287 34.0473 65.3332 34.2131 64.4194 34.2131ZM71.2038 34V23.0909H73.7749V27.4943H74.7124L77.9936 23.0909H81.0902L77.049 28.446L81.1328 34H78.022L75.032 29.8878H73.7749V34H71.2038ZM85.0692 30.5199L89.4371 23.0909H92.0792V34H89.5934V26.5639L85.2397 34H82.5906V23.0909H85.0692V30.5199ZM97.1982 30.5199L101.566 23.0909H104.208V34H101.722V26.5639L97.3686 34H94.7195V23.0909H97.1982V30.5199ZM100.863 19.3409H102.788C102.788 20.1695 102.487 20.8419 101.886 21.358C101.289 21.8693 100.479 22.125 99.4567 22.125C98.4434 22.125 97.6361 21.8693 97.0348 21.358C96.4382 20.8419 96.1423 20.1695 96.147 19.3409H98.0575C98.0575 19.6818 98.1617 19.9872 98.37 20.2571C98.5831 20.5223 98.9453 20.6548 99.4567 20.6548C99.9586 20.6548 100.316 20.5223 100.529 20.2571C100.747 19.992 100.858 19.6866 100.863 19.3409Z" fill="white"/>
<g clip-path="url(#clip1_75_550)">
<path d="M246.452 20.2949C246.452 7.41452 251.474 -4.72092 260.582 -13.8285C269.701 -22.9481 281.813 -27.9705 294.705 -27.9585C307.585 -27.9585 319.721 -22.9361 328.828 -13.8285C337.936 -4.72091 342.97 7.40251 342.958 20.2949C342.946 33.1873 337.948 45.2987 328.828 54.4183C321.163 62.0841 311.37 66.8542 300.797 68.1759C298.79 68.4282 296.772 68.5483 294.717 68.5603C292.674 68.5603 290.644 68.4282 288.649 68.1879C281.352 67.2757 274.422 64.7273 268.305 60.7122C266.628 59.6113 264.388 59.7436 262.97 61.1621L255.48 68.6516C253.918 70.2137 253.918 72.7464 255.48 74.3085L266.349 85.1775C266.878 85.7062 266.878 86.5713 266.349 87.0999L259.14 94.3091C258.611 94.8378 257.746 94.8378 257.217 94.3091L246.348 83.4401C244.786 81.878 242.254 81.878 240.691 83.4401L226.699 97.4331C226.17 97.9618 225.305 97.9618 224.776 97.4331L217.567 90.2239C217.038 89.6952 217.038 88.8301 217.567 88.3015L231.56 74.3085C233.122 72.7464 233.122 70.2137 231.56 68.6516L220.691 57.7826C220.162 57.254 220.162 56.3888 220.691 55.8602L227.9 48.651C228.429 48.1223 229.294 48.1223 229.822 48.651L240.691 59.52C242.254 61.0821 244.786 61.0821 246.348 59.52L253.84 52.0285C255.257 50.6109 255.391 48.3721 254.291 46.6957C249.186 38.9115 246.452 29.8216 246.452 20.2949ZM269.713 45.2867C276.394 51.9672 285.249 55.6319 294.705 55.6439C304.149 55.6439 313.016 51.9672 319.697 45.2867C326.377 38.6062 330.042 29.751 330.054 20.2949C330.066 10.8389 326.377 1.98362 319.697 -4.69689C313.016 -11.3774 304.161 -15.042 294.705 -15.0541C285.261 -15.0541 276.394 -11.3774 269.713 -4.69689C263.033 1.98361 259.368 10.8389 259.356 20.2949C259.368 29.751 263.033 38.6062 269.713 45.2867Z" fill="#F56002"/>
</g>
</g>
<rect x="0.5" y="0.5" width="317" height="103" rx="16.5" stroke="#F56002"/>
<defs>
<clipPath id="clip0_75_550">
<rect width="318" height="104" rx="17" fill="white"/>
</clipPath>
<clipPath id="clip1_75_550">
<rect width="174" height="174" fill="white" transform="matrix(-1 8.74228e-08 8.74228e-08 1 362 -47)"/>
</clipPath>
</defs>
</svg>
