<svg width="32" height="32" viewBox="0 0 32 32" fill="none" xmlns="http://www.w3.org/2000/svg">
<g id="iconoir:gym">
<g id="Group">
<path id="Vector" d="M9.86683 9.33325H6.1335C5.92132 9.33325 5.71784 9.41754 5.56781 9.56757C5.41778 9.7176 5.3335 9.92108 5.3335 10.1333V21.8666C5.3335 21.9716 5.35419 22.0757 5.39439 22.1727C5.4346 22.2698 5.49352 22.358 5.56781 22.4323C5.6421 22.5066 5.73029 22.5655 5.82735 22.6057C5.92441 22.6459 6.02844 22.6666 6.1335 22.6666H9.86683C9.97189 22.6666 10.0759 22.6459 10.173 22.6057C10.27 22.5655 10.3582 22.5066 10.4325 22.4323C10.5068 22.358 10.5657 22.2698 10.6059 22.1727C10.6461 22.0757 10.6668 21.9716 10.6668 21.8666V10.1333C10.6668 9.92108 10.5825 9.7176 10.4325 9.56757C10.2825 9.41754 10.079 9.33325 9.86683 9.33325ZM25.8668 9.33325H22.1335C21.9213 9.33325 21.7178 9.41754 21.5678 9.56757C21.4178 9.7176 21.3335 9.92108 21.3335 10.1333V21.8666C21.3335 21.9716 21.3542 22.0757 21.3944 22.1727C21.4346 22.2698 21.4935 22.358 21.5678 22.4323C21.6421 22.5066 21.7303 22.5655 21.8273 22.6057C21.9244 22.6459 22.0284 22.6666 22.1335 22.6666H25.8668C25.9719 22.6666 26.0759 22.6459 26.173 22.6057C26.27 22.5655 26.3582 22.5066 26.4325 22.4323C26.5068 22.358 26.5657 22.2698 26.6059 22.1727C26.6461 22.0757 26.6668 21.9716 26.6668 21.8666V10.1333C26.6668 9.92108 26.5825 9.7176 26.4325 9.56757C26.2825 9.41754 26.079 9.33325 25.8668 9.33325Z" stroke="#F56002" stroke-width="1.5" stroke-linecap="round" stroke-linejoin="round"/>
<path id="Vector_2" d="M10.6668 16H21.3335M1.3335 19.2V12.8C1.3335 12.5878 1.41778 12.3843 1.56781 12.2343C1.71784 12.0843 1.92132 12 2.1335 12H4.5335C4.74567 12 4.94915 12.0843 5.09918 12.2343C5.24921 12.3843 5.3335 12.5878 5.3335 12.8V19.2C5.3335 19.4122 5.24921 19.6157 5.09918 19.7657C4.94915 19.9157 4.74567 20 4.5335 20H2.1335C1.92132 20 1.71784 19.9157 1.56781 19.7657C1.41778 19.6157 1.3335 19.4122 1.3335 19.2ZM30.6668 19.2V12.8C30.6668 12.5878 30.5825 12.3843 30.4325 12.2343C30.2825 12.0843 30.079 12 29.8668 12H27.4668C27.2547 12 27.0512 12.0843 26.9011 12.2343C26.7511 12.3843 26.6668 12.5878 26.6668 12.8V19.2C26.6668 19.4122 26.7511 19.6157 26.9011 19.7657C27.0512 19.9157 27.2547 20 27.4668 20H29.8668C30.079 20 30.2825 19.9157 30.4325 19.7657C30.5825 19.6157 30.6668 19.4122 30.6668 19.2Z" stroke="#F56002" stroke-width="1.5" stroke-linecap="round" stroke-linejoin="round"/>
</g>
</g>
</svg>
